<svg width="91" height="25" viewBox="0 0 91 25" fill="none" xmlns="http://www.w3.org/2000/svg">
<path d="M1.422 6.72H3.798L7.956 12.426L12.114 6.72H14.49V19.5H11.88V11.184L7.956 16.566L4.032 11.184V19.5H1.422V6.72ZM20.8042 19.5V14.118L16.0882 6.72H19.1122L22.1002 11.562L25.1062 6.72H28.1482L23.4142 14.136V19.5H20.8042ZM29.7579 19.5V6.72H32.3679V11.814H37.9119V6.72H40.5219V19.5H37.9119V14.298H32.3679V19.5H29.7579ZM46.3874 16.008C47.1674 16.8 48.1094 17.196 49.2134 17.196C50.3174 17.196 51.2534 16.8 52.0214 16.008C52.8014 15.204 53.1914 14.238 53.1914 13.11C53.1914 11.982 52.8014 11.022 52.0214 10.23C51.2534 9.426 50.3174 9.024 49.2134 9.024C48.1094 9.024 47.1674 9.426 46.3874 10.23C45.6194 11.022 45.2354 11.982 45.2354 13.11C45.2354 14.238 45.6194 15.204 46.3874 16.008ZM53.8754 17.79C52.5914 19.074 51.0374 19.716 49.2134 19.716C47.3894 19.716 45.8294 19.074 44.5334 17.79C43.2494 16.494 42.6074 14.934 42.6074 13.11C42.6074 11.286 43.2494 9.732 44.5334 8.448C45.8294 7.152 47.3894 6.504 49.2134 6.504C51.0374 6.504 52.5914 7.152 53.8754 8.448C55.1714 9.732 55.8194 11.286 55.8194 13.11C55.8194 14.934 55.1714 16.494 53.8754 17.79ZM57.9005 6.72H60.2765L64.4345 12.426L68.5925 6.72H70.9685V19.5H68.3585V11.184L64.4345 16.566L60.5105 11.184V19.5H57.9005V6.72ZM73.8087 19.5V6.72H81.7647V9.204H76.4187V11.832H80.6847V14.316H76.4187V17.016H81.7647V19.5H73.8087Z" fill="#5A8DFF"/>
</svg>
