<svg width="24" height="24" viewBox="0 0 24 24" fill="none" xmlns="http://www.w3.org/2000/svg">
<rect width="24" height="24" rx="12" fill="#FF3924"/>
<g clip-path="url(#clip0_435_132)">
<path d="M17.9644 8.56125C18.25 9.675 18.25 12 18.25 12C18.25 12 18.25 14.325 17.9644 15.4388C17.8056 16.0544 17.3412 16.5387 16.7531 16.7025C15.685 17 12 17 12 17C12 17 8.31687 17 7.24688 16.7025C6.65625 16.5363 6.1925 16.0525 6.03563 15.4388C5.75 14.325 5.75 12 5.75 12C5.75 12 5.75 9.675 6.03563 8.56125C6.19438 7.94563 6.65875 7.46125 7.24688 7.2975C8.31687 7 12 7 12 7C12 7 15.685 7 16.7531 7.2975C17.3438 7.46375 17.8075 7.9475 17.9644 8.56125ZM10.75 14.1875L14.5 12L10.75 9.8125V14.1875Z" fill="white"/>
</g>
<defs>
<clipPath id="clip0_435_132">
<rect width="15" height="15" fill="white" transform="translate(4.5 4.5)"/>
</clipPath>
</defs>
</svg>
