<svg width="24" height="24" viewBox="0 0 24 24" fill="none" xmlns="http://www.w3.org/2000/svg">
<rect width="24" height="24" rx="12" fill="url(#paint0_linear_435_128)"/>
<path fill-rule="evenodd" clip-rule="evenodd" d="M9.40828 7.06509C8.11417 7.06509 7.06509 8.11417 7.06509 9.40828V14.5917C7.06509 15.8858 8.11417 16.9349 9.40828 16.9349H14.5917C15.8858 16.9349 16.9349 15.8858 16.9349 14.5917V9.40828C16.9349 8.11417 15.8858 7.06509 14.5917 7.06509H9.40828ZM6 9.40828C6 7.52594 7.52594 6 9.40828 6H14.5917C16.4741 6 18 7.52594 18 9.40828V14.5917C18 16.4741 16.4741 18 14.5917 18H9.40828C7.52594 18 6 16.4741 6 14.5917V9.40828Z" fill="white"/>
<path fill-rule="evenodd" clip-rule="evenodd" d="M12 9.97638C10.8824 9.97638 9.97633 10.8824 9.97633 12C9.97633 13.1177 10.8824 14.0237 12 14.0237C13.1176 14.0237 14.0237 13.1177 14.0237 12C14.0237 10.8824 13.1176 9.97638 12 9.97638ZM8.91124 12C8.91124 10.2942 10.2941 8.91129 12 8.91129C13.7059 8.91129 15.0888 10.2942 15.0888 12C15.0888 13.7059 13.7059 15.0888 12 15.0888C10.2941 15.0888 8.91124 13.7059 8.91124 12Z" fill="white"/>
<path fill-rule="evenodd" clip-rule="evenodd" d="M14.4852 8.76928C14.4852 8.35751 14.819 8.02371 15.2308 8.02371C15.6425 8.02371 15.9763 8.35751 15.9763 8.76928C15.9763 9.18104 15.6425 9.51484 15.2308 9.51484C14.819 9.51484 14.4852 9.18104 14.4852 8.76928Z" fill="white"/>
<defs>
<linearGradient id="paint0_linear_435_128" x1="24" y1="-1.43051e-06" x2="1.43051e-06" y2="24" gradientUnits="userSpaceOnUse">
<stop stop-color="#873AC8"/>
<stop offset="0.500849" stop-color="#D93074"/>
<stop offset="1" stop-color="#FFBF4F"/>
</linearGradient>
</defs>
</svg>
