<svg width="24" height="24" viewBox="0 0 24 24" fill="none" xmlns="http://www.w3.org/2000/svg">
<rect width="24" height="24" rx="12" fill="#5066E5"/>
<g clip-path="url(#clip0_435_112)">
<path d="M12 5.75C8.54813 5.75 5.75 8.54813 5.75 12C5.75 15.1194 8.03562 17.705 11.0237 18.1744V13.8063H9.43625V12H11.0237V10.6231C11.0237 9.05687 11.9563 8.19187 13.3844 8.19187C14.0681 8.19187 14.7831 8.31375 14.7831 8.31375V9.85125H13.9956C13.2188 9.85125 12.9769 10.3331 12.9769 10.8275V12H14.71L14.4331 13.8063H12.9769V18.1744C15.9644 17.7056 18.25 15.1187 18.25 12C18.25 8.54813 15.4519 5.75 12 5.75Z" fill="white"/>
</g>
<defs>
<clipPath id="clip0_435_112">
<rect x="4.5" y="4.5" width="15" height="15" rx="7.5" fill="white"/>
</clipPath>
</defs>
</svg>
