<svg width="56" height="56" viewBox="0 0 56 56" fill="none" xmlns="http://www.w3.org/2000/svg">
<circle cx="28" cy="28" r="28" fill="#5D5FEF"/>
<path d="M29.999 21C30 19.895 27.76 19 25 19C22.24 19 20.002 19.896 20 21C20 22.105 22.238 23 25 23C27.762 23 30 22.105 30 21" stroke="white" stroke-width="1.5" stroke-linecap="round" stroke-linejoin="round"/>
<path d="M30 21V28.76" stroke="white" stroke-width="1.5" stroke-linecap="round" stroke-linejoin="round"/>
<path d="M20.001 25C20.001 26.105 22.239 27 25.001 27C27.763 27 30.001 26.105 30.001 25" stroke="white" stroke-width="1.5" stroke-linecap="round" stroke-linejoin="round"/>
<path d="M35.6817 29.3182C37.4387 31.0752 37.4387 33.9252 35.6817 35.6822C33.9247 37.4392 31.0747 37.4392 29.3177 35.6822C27.5608 33.9252 27.5608 31.0752 29.3177 29.3182C31.0747 27.5612 33.9247 27.5612 35.6817 29.3182" stroke="white" stroke-width="1.5" stroke-linecap="round" stroke-linejoin="round"/>
<path d="M28.505 30.425C27.603 30.78 26.366 31 25 31C22.239 31 20.001 30.105 20.001 29" stroke="white" stroke-width="1.5" stroke-linecap="round" stroke-linejoin="round"/>
<path d="M28.445 34.444C27.548 34.787 26.339 35 25 35C22.239 35 20.001 34.105 20 33V21" stroke="white" stroke-width="1.5" stroke-linecap="round" stroke-linejoin="round"/>
</svg>
