<svg width="24" height="24" viewBox="0 0 24 24" fill="none" xmlns="http://www.w3.org/2000/svg">
<path d="M0 12C0 5.37258 5.37258 0 12 0C18.6274 0 24 5.37258 24 12C24 18.6274 18.6274 24 12 24C5.37258 24 0 18.6274 0 12Z" fill="#44C554"/>
<path d="M12.025 5.25C13.6234 5.25084 15.1236 5.90873 16.2516 7.10292C17.3797 8.29707 18.0006 9.88457 18 11.5725C17.9987 15.0212 15.3714 17.8336 12.1238 17.8895L12.0252 17.8903H12.0227C11.0381 17.89 10.0703 17.6329 9.2078 17.1446C9.182 17.1298 9.15136 17.126 9.12271 17.1339L8.55255 17.292C7.41827 17.6066 6.36888 16.5752 6.6639 15.4356L6.69017 15.3342C6.79134 14.9434 6.732 14.5321 6.57408 14.1606C6.22935 13.3496 6.04982 12.4672 6.05016 11.5674C6.05147 8.08408 8.73183 5.25 12.025 5.25ZM12.0271 6.31715C9.28786 6.31715 7.06003 8.67268 7.05895 11.568C7.05858 12.545 7.3132 13.4971 7.79578 14.3244L7.81819 14.3626C7.89379 14.4897 7.91545 14.6418 7.87837 14.7851L7.82433 14.9937C7.65115 15.6626 8.2671 16.2681 8.93288 16.0834L9.10789 16.0349C9.2393 15.9984 9.37998 16.0189 9.49552 16.0914C10.2458 16.5622 11.1043 16.815 11.9807 16.8232L12.0231 16.8234H12.0252C14.7623 16.8234 16.9901 14.4677 16.9912 11.5722C16.9917 10.1691 16.4757 8.84968 15.538 7.85712C14.6004 6.86461 13.3535 6.31765 12.0271 6.31715ZM9.90975 8.64988C10.0092 8.64988 10.109 8.65087 10.1959 8.65558C10.2876 8.66034 10.4106 8.61875 10.5317 8.92651C10.5782 9.04447 10.6489 9.22673 10.7213 9.4129L10.7368 9.4528C10.8533 9.75242 10.9697 10.0512 10.9921 10.0986C11.0294 10.1776 11.0542 10.2698 11.0045 10.3751C10.9548 10.4805 10.9298 10.5463 10.8553 10.6386C10.7806 10.7307 10.6985 10.8445 10.6313 10.9151C10.6277 10.919 10.624 10.9228 10.6204 10.9267L10.6095 10.9384C10.5429 11.0112 10.4873 11.0947 10.5659 11.2372C10.653 11.3953 10.9525 11.9124 11.3963 12.3309C11.9666 12.8687 12.4477 13.0354 12.597 13.1145C12.7462 13.1935 12.8333 13.1803 12.9204 13.0748C13.0075 12.9696 13.2936 12.614 13.3931 12.4559C13.4926 12.2979 13.5922 12.3243 13.729 12.3769C13.794 12.402 13.9941 12.5014 14.2021 12.6074L14.2668 12.6404C14.475 12.747 14.6782 12.8529 14.7491 12.8905C14.8984 12.9696 14.998 13.0091 15.0353 13.0748C15.0726 13.1408 15.0726 13.4567 14.9482 13.8255C14.8238 14.1943 14.2273 14.5308 13.9405 14.5762C13.6833 14.6168 13.3578 14.6337 13.0002 14.5137C12.7834 14.4408 12.5053 14.3437 12.1491 14.1811C10.6515 13.4974 9.67336 11.9027 9.59878 11.7975L9.59372 11.7903C9.50273 11.6618 8.98913 10.9256 8.98913 10.1644C8.98913 9.38742 9.37486 9.00551 9.51164 8.84745C9.64852 8.68953 9.81023 8.64988 9.90975 8.64988Z" fill="white"/>
</svg>
